<svg xmlns="http://www.w3.org/2000/svg" xmlns:xlink="http://www.w3.org/1999/xlink"><defs><symbol viewBox="0 0 17 16" fill="none" id="icon-allseason">
<path d="M13.2793 7.2H16.6153V8.8H13.2793L15.8713 11.392L14.7433 12.528L11.0153 8.8H9.41528V10.4L13.1433 14.128L12.0073 15.256L9.41528 12.664V16H8.43066V0H9.41528V3.336L12.0073 0.744L13.1433 1.872L9.41528 5.6V7.2H11.0153L14.7433 3.472L15.8713 4.608L13.2793 7.2Z" fill="#008BD1" />
<path fill-rule="evenodd" clip-rule="evenodd" d="M7.69231 3.64693C5.42821 3.80589 3.63636 5.70534 3.63636 8.01972C3.63636 10.3341 5.42821 12.2335 7.69231 12.3925V3.64693ZM2.88 1.84619L4.18909 3.15396L3.15636 4.18408L1.85454 2.87631L2.88 1.84619ZM0 7.2891H2.18182V8.7503H0V7.2891ZM2.88 14.1932L1.85454 13.1631L3.15636 11.848L4.18182 12.8782L2.88 14.1932Z" fill="#F3CA2C" />
</symbol><symbol viewBox="0 0 8 12" fill="none" id="icon-arrow-left">
<path d="M8 1.41L3.42 6L8 10.59L6.59 12L0.59 6L6.59 0L8 1.41Z" fill="currentColor" />
</symbol><symbol viewBox="0 0 16 16" fill="none" id="icon-arrow-next">
<path d="M8 0L6.59 1.41L12.17 7H0V9H12.17L6.59 14.59L8 16L16 8L8 0Z" fill="currentColor" />
</symbol><symbol viewBox="0 0 16 16" fill="none" id="icon-arrow-prev">
<path d="M8 16L9.41 14.59L3.83 9L16 9L16 7L3.83 7L9.41 1.41L8 -6.99382e-07L6.99382e-07 8L8 16Z" fill="currentColor" />
</symbol><symbol viewBox="0 0 8 12" fill="none" id="icon-arrow-right">
<path d="M0 10.59L4.58 6L0 1.41L1.41 0L7.41 6L1.41 12L0 10.59Z" fill="currentColor" />
</symbol><symbol viewBox="0 0 29 29" fill="none" id="icon-attention">
<path d="M13.05 18.85H15.95V21.75H13.05V18.85ZM13.05 7.25H15.95V15.95H13.05V7.25ZM14.4855 0C6.4815 0 0 6.496 0 14.5C0 22.504 6.4815 29 14.4855 29C22.504 29 29 22.504 29 14.5C29 6.496 22.504 0 14.4855 0ZM14.5 26.1C8.091 26.1 2.9 20.909 2.9 14.5C2.9 8.091 8.091 2.9 14.5 2.9C20.909 2.9 26.1 8.091 26.1 14.5C26.1 20.909 20.909 26.1 14.5 26.1Z" fill="currentColor" />
</symbol><symbol viewBox="0 0 20 20" fill="none" id="icon-battery">
<path fill-rule="evenodd" clip-rule="evenodd" d="M18 2H17V0H15V2H5V0H3V2H2C0.9 2 0 2.9 0 4V18C0 19.1 0.9 20 2 20H18C19.1 20 20 19.1 20 18V4C20 2.9 19.1 2 18 2ZM18 18H2V7H18V18ZM6 13.5V15.5H7.5V13.5H9.5V12H7.5V10H6V12H4V13.5H6ZM16.5 12H11.5V13.5H16.5V12Z" fill="currentColor" />
</symbol><symbol viewBox="0 0 18 16" fill="none" id="icon-car">
<path d="M15.92 1.01C15.72 0.42 15.16 0 14.5 0H3.5C2.84 0 2.29 0.42 2.08 1.01L0 7V15C0 15.55 0.45 16 1 16H2C2.55 16 3 15.55 3 15V14H15V15C15 15.55 15.45 16 16 16H17C17.55 16 18 15.55 18 15V7L15.92 1.01ZM3.5 11C2.67 11 2 10.33 2 9.5C2 8.67 2.67 8 3.5 8C4.33 8 5 8.67 5 9.5C5 10.33 4.33 11 3.5 11ZM14.5 11C13.67 11 13 10.33 13 9.5C13 8.67 13.67 8 14.5 8C15.33 8 16 8.67 16 9.5C16 10.33 15.33 11 14.5 11ZM2 6L3.5 1.5H14.5L16 6H2Z" fill="currentColor" />
</symbol><symbol viewBox="0 0 16 12" fill="none" id="icon-card">
<path d="M13.8857 0H1.54286C0.686571 0 0.00771428 0.6675 0.00771428 1.5L0 10.5C0 11.3325 0.686571 12 1.54286 12H13.8857C14.742 12 15.4286 11.3325 15.4286 10.5V1.5C15.4286 0.6675 14.742 0 13.8857 0ZM13.8857 10.5H1.54286V6H13.8857V10.5ZM13.8857 3H1.54286V1.5H13.8857V3Z" fill="currentColor" />
</symbol><symbol viewBox="0 0 20 20" fill="none" id="icon-cart">
<path d="M6 16C4.9 16 4.01 16.9 4.01 18C4.01 19.1 4.9 20 6 20C7.1 20 8 19.1 8 18C8 16.9 7.1 16 6 16ZM0 0V2H2L5.6 9.59L4.25 12.04C4.09 12.32 4 12.65 4 13C4 14.1 4.9 15 6 15H18V13H6.42C6.28 13 6.17 12.89 6.17 12.75L6.2 12.63L7.1 11H14.55C15.3 11 15.96 10.59 16.3 9.97L19.88 3.48C19.96 3.34 20 3.17 20 3C20 2.45 19.55 2 19 2H4.21L3.27 0H0ZM16 16C14.9 16 14.01 16.9 14.01 18C14.01 19.1 14.9 20 16 20C17.1 20 18 19.1 18 18C18 16.9 17.1 16 16 16Z" fill="currentColor" />
</symbol><symbol viewBox="0 0 20 19" fill="none" id="icon-case">
<path fill-rule="evenodd" clip-rule="evenodd" d="M12 4V2H8V4H12ZM2 6V17H18V6H2ZM18 4C19.11 4 20 4.89 20 6V17C20 18.11 19.11 19 18 19H2C0.89 19 0 18.11 0 17L0.00999999 6C0.00999999 4.89 0.89 4 2 4H6V2C6 0.89 6.89 0 8 0H12C13.11 0 14 0.89 14 2V4H18Z" fill="currentColor" />
</symbol><symbol viewBox="0 0 18 14" fill="none" id="icon-checked">
<path d="M5.59 10.58L1.42 6.41L0 7.82L5.59 13.41L17.59 1.41L16.18 0L5.59 10.58Z" fill="currentColor" />
</symbol><symbol viewBox="0 0 16 16" fill="none" id="icon-compare">
<path d="M6 16H10V0H6V16ZM0 16H4V8H0V16ZM12 5V16H16V5H12Z" fill="currentColor" />
</symbol><symbol viewBox="0 0 15 14" fill="none" id="icon-credit">
<path d="M13.2632 2.94737H10.3158V1.47368C10.3158 1.06842 10.1537 0.7 9.88105 0.434737C9.61579 0.162105 9.24737 0 8.84211 0H5.89474C5.08421 0 4.42105 0.663158 4.42105 1.47368V2.94737H1.47368C0.663158 2.94737 0 3.61053 0 4.42105V12.5263C0 13.3368 0.663158 14 1.47368 14H13.2632C14.0737 14 14.7368 13.3368 14.7368 12.5263V4.42105C14.7368 3.61053 14.0737 2.94737 13.2632 2.94737ZM5.89474 1.47368H8.84211V2.94737H5.89474V1.47368ZM6.63158 11.4211L5.89474 10.6842L8.10526 8.47368L5.89474 6.26316L6.63158 5.52632L9.57895 8.47368L6.63158 11.4211Z" fill="currentColor" />
</symbol><symbol viewBox="0 0 17 12" fill="none" id="icon-delivery">
<path d="M14.0649 3H11.8442V0H1.48052C0.666234 0 0 0.675 0 1.5V9.75H1.48052C1.48052 10.995 2.47247 12 3.7013 12C4.93013 12 5.92208 10.995 5.92208 9.75H10.3636C10.3636 10.995 11.3556 12 12.5844 12C13.8132 12 14.8052 10.995 14.8052 9.75H16.2857V6L14.0649 3ZM3.7013 10.875C3.08688 10.875 2.59091 10.3725 2.59091 9.75C2.59091 9.1275 3.08688 8.625 3.7013 8.625C4.31571 8.625 4.81169 9.1275 4.81169 9.75C4.81169 10.3725 4.31571 10.875 3.7013 10.875ZM13.6948 4.125L15.1457 6H11.8442V4.125H13.6948ZM12.5844 10.875C11.97 10.875 11.474 10.3725 11.474 9.75C11.474 9.1275 11.97 8.625 12.5844 8.625C13.1988 8.625 13.6948 9.1275 13.6948 9.75C13.6948 10.3725 13.1988 10.875 12.5844 10.875Z" fill="currentColor" />
</symbol><symbol viewBox="0 0 11 8" fill="none" id="icon-dropdown">
<path d="M10.1861 0.400493L5.78564 6.57105L1.38515 0.400493" stroke="currentColor" stroke-linejoin="round" />
</symbol><symbol viewBox="0 0 18 14" fill="none" id="icon-email">
<path d="M16.2 0H1.8C0.81 0 0.00899999 0.7875 0.00899999 1.75L0 12.25C0 13.2125 0.81 14 1.8 14H16.2C17.19 14 18 13.2125 18 12.25V1.75C18 0.7875 17.19 0 16.2 0ZM16.2 12.25H1.8V3.5L9 7.875L16.2 3.5V12.25ZM9 6.125L1.8 1.75H16.2L9 6.125Z" fill="currentColor" />
</symbol><symbol viewBox="0 0 24 24" fill="none" id="icon-emoji">
<path fill-rule="evenodd" clip-rule="evenodd" d="M0 12C0 5.376 5.364 0 11.988 0C18.624 0 24 5.376 24 12C24 18.624 18.624 24 11.988 24C5.364 24 0 18.624 0 12ZM2.4 12C2.4 17.304 6.696 21.6 12 21.6C17.304 21.6 21.6 17.304 21.6 12C21.6 6.696 17.304 2.4 12 2.4C6.696 2.4 2.4 6.696 2.4 12ZM18.144 14.4C17.184 16.86 14.796 18.6 12 18.6C9.204 18.6 6.816 16.86 5.856 14.4H7.86C8.7 15.828 10.224 16.8 12 16.8C13.776 16.8 15.312 15.828 16.14 14.4H18.144ZM7.8 10.8C8.79411 10.8 9.6 9.99411 9.6 9C9.6 8.00589 8.79411 7.2 7.8 7.2C6.80589 7.2 6 8.00589 6 9C6 9.99411 6.80589 10.8 7.8 10.8ZM16.2 10.8C17.1941 10.8 18 9.99411 18 9C18 8.00589 17.1941 7.2 16.2 7.2C15.2059 7.2 14.4 8.00589 14.4 9C14.4 9.99411 15.2059 10.8 16.2 10.8Z" fill="currentColor" />
</symbol><symbol viewBox="0 0 12 12" fill="none" id="icon-exit">
<path d="M10 12H0V2H3V6.77L9.98 0L12 2.03L5.15 9H10V12Z" fill="currentColor" />
</symbol><symbol viewBox="0 0 16 11" fill="none" id="icon-eye">
<path d="M8 0C4.36364 0 1.25818 2.28067 0 5.5C1.25818 8.71933 4.36364 11 8 11C11.6364 11 14.7418 8.71933 16 5.5C14.7418 2.28067 11.6364 0 8 0ZM8 9.16667C5.99273 9.16667 4.36364 7.524 4.36364 5.5C4.36364 3.476 5.99273 1.83333 8 1.83333C10.0073 1.83333 11.6364 3.476 11.6364 5.5C11.6364 7.524 10.0073 9.16667 8 9.16667ZM8 3.3C6.79273 3.3 5.81818 4.28267 5.81818 5.5C5.81818 6.71733 6.79273 7.7 8 7.7C9.20727 7.7 10.1818 6.71733 10.1818 5.5C10.1818 4.28267 9.20727 3.3 8 3.3Z" fill="currentColor" />
</symbol><symbol viewBox="0 0 21 20" fill="none" id="icon-facebook">
<path d="M10.1639 0C4.64083 0 0.164062 4.47701 0.164062 9.99988C0.164062 15.523 4.64108 20 10.1639 20C15.6866 20 20.1638 15.523 20.1638 9.99988C20.1641 4.47701 15.6866 0 10.1639 0ZM13.2308 5.39886C13.2335 5.59981 13.1531 5.66978 12.9576 5.66978C12.4596 5.66978 11.9613 5.67576 11.4633 5.69518C11.2133 5.70514 10.917 5.98578 10.9087 6.22932C10.8903 6.79632 10.8933 7.36432 10.8876 7.93207C10.8856 8.09841 11.0073 8.08372 11.1134 8.08372C11.6505 8.08521 12.1877 8.08372 12.725 8.08347C12.786 8.08322 12.8478 8.08322 12.9091 8.08446C13.1944 8.09044 13.2405 8.15867 13.1797 8.43532C13.1414 8.61287 13.1284 8.79614 13.1018 8.97643C13.0234 9.49637 12.9514 10.0173 12.8558 10.534C12.8441 10.5973 12.7056 10.6777 12.6237 10.6799C12.1409 10.6936 11.6565 10.7008 11.1742 10.6794C10.9294 10.6692 10.8833 10.7541 10.8841 10.98C10.8911 12.8598 10.8858 14.7396 10.8841 16.6194C10.0245 16.6194 9.16465 16.6194 8.30531 16.6194C8.30332 14.7319 8.29709 12.8444 8.30431 10.9568C8.3053 10.7297 8.24156 10.6725 8.02093 10.6799C7.52241 10.6971 7.02314 10.6809 6.52411 10.6876C6.31893 10.6906 6.23575 10.61 6.237 10.4018C6.24322 9.7267 6.24198 9.05114 6.23501 8.37581C6.23302 8.16066 6.31619 8.07675 6.53632 8.08098C7.05028 8.09194 7.56475 8.07849 8.07821 8.08696C8.24829 8.08994 8.30656 8.03641 8.30382 7.86309C8.29411 7.28787 8.30058 6.7124 8.29833 6.13643C8.29435 4.98076 8.86036 4.15852 9.835 3.61293C10.1811 3.41895 10.5771 3.31487 10.9991 3.32906C11.6506 3.35023 12.3032 3.34002 12.9551 3.32757C13.1663 3.32408 13.2358 3.38857 13.2308 3.60372C13.2181 4.2026 13.2228 4.80123 13.2308 5.39886Z" fill="currentColor" />
</symbol><symbol viewBox="0 0 21 19" fill="none" id="icon-favourite">
<path d="M14.5626 0C12.8156 0 11.1389 0.81 10.0445 2.09C8.95008 0.81 7.27335 0 5.52633 0C2.43391 0 0.00415039 2.42 0.00415039 5.5C0.00415039 9.28 3.41786 12.36 8.58863 17.04L10.0445 18.35L11.5003 17.03C16.6711 12.36 20.0848 9.28 20.0848 5.5C20.0848 2.42 17.655 0 14.5626 0ZM10.1449 15.55L10.0445 15.65L9.94408 15.55C5.16488 11.24 2.01222 8.39 2.01222 5.5C2.01222 3.5 3.51827 2 5.52633 2C7.07254 2 8.57859 2.99 9.11073 4.36H10.9883C11.5104 2.99 13.0164 2 14.5626 2C16.5707 2 18.0767 3.5 18.0767 5.5C18.0767 8.39 14.9241 11.24 10.1449 15.55Z" fill="currentColor" />
</symbol><symbol viewBox="0 0 18 18" fill="none" id="icon-filter">
<path d="M0 14V16H6V14H0ZM0 2V4H10V2H0ZM10 18V16H18V14H10V12H8V18H10ZM4 6V8H0V10H4V12H6V6H4ZM18 10V8H8V10H18ZM12 6H14V4H18V2H14V0H12V6Z" fill="currentColor" />
</symbol><symbol viewBox="0 0 18 16" fill="none" id="icon-founding">
<path fill-rule="evenodd" clip-rule="evenodd" d="M7.98184 7.39032C7.79252 7.18872 7.66139 6.92759 7.6196 6.62951L7.3593 4.77354C7.24942 3.98983 7.69314 3.56218 8.50611 3.72346C8.50611 3.72346 8.82341 3.7861 9.28133 3.9882L10.2935 2.97885C9.29969 2.42973 8.15695 2.11719 6.94118 2.11719C3.10754 2.11719 0 5.22473 0 9.05836C0 12.8919 3.10747 15.9995 6.94118 15.9995C9.88951 15.9995 12.4084 14.1614 13.4146 11.5686C13.2594 11.6115 13.0998 11.6332 12.9412 11.6332C12.61 11.6332 12.2748 11.5388 11.9836 11.3535C11.6499 12.0468 11.2953 12.4914 11.2953 12.4914C10.7878 13.0981 10.1047 13.0232 9.73301 12.3249L9.00492 10.932C8.63714 10.2405 8.91186 9.39578 9.60727 9.0427L8.17366 7.61301C8.10246 7.5429 8.03853 7.46837 7.98184 7.39032ZM2.5002 5.93322C2.46907 5.98414 2.4382 6.03465 2.40632 6.08504C1.98353 6.75393 2.19542 7.35927 2.97439 7.49689L4.71229 7.80393C5.49112 7.94155 6.21855 7.41315 6.3283 6.62951L6.5886 4.77354C6.69855 3.98983 6.20915 3.53157 5.44178 3.72346C5.00066 3.83408 4.68568 3.95436 3.77783 4.58885C2.98204 5.14499 2.73393 5.55087 2.5002 5.93322ZM1.15842 9.0539C1.15842 10.9061 2.53767 12.4914 2.53767 12.4914C3.04527 13.0981 3.78316 13.0232 4.15454 12.3249L4.91711 10.932C5.28883 10.2335 4.99379 9.37861 4.28256 9.03209L2.68335 8.26306C1.97206 7.91648 1.35845 8.05163 1.15842 8.56337V9.0539ZM6.97378 14.7636C8.11206 14.7636 8.75802 14.4627 8.75802 14.4627C9.47518 14.1286 9.61253 13.3897 9.06312 12.8205L7.97271 11.6908C7.42337 11.1216 6.52439 11.1216 5.97505 11.6908L4.88464 12.8205C4.3353 13.3897 4.47259 14.1286 5.18962 14.4627C5.18962 14.4627 5.8357 14.7636 6.97378 14.7636Z" fill="#008BD1" />
<path d="M8.7531 5.6919L14.4606 0L15.3608 0.897716L13.8414 2.41301L17.1293 5.6919C17.5059 6.06754 17.5059 6.67239 17.1293 7.04166L13.6179 10.5434C13.4328 10.728 13.1838 10.8235 12.9412 10.8235C12.6986 10.8235 12.4496 10.728 12.2645 10.5434L8.7531 7.04166C8.37643 6.67239 8.37643 6.06754 8.7531 5.6919ZM15.9993 6.36678L12.9412 3.31709L9.88312 6.36678H15.9993Z" fill="#F3CA2C" />
</symbol><symbol viewBox="0 0 20 19" fill="none" id="icon-gift">
<path d="M18 4H15.82C15.93 3.69 16 3.35 16 3C16 1.34 14.66 0 13 0C11.95 0 11.04 0.54 10.5 1.35L10 2.02L9.5 1.34C8.96 0.54 8.05 0 7 0C5.34 0 4 1.34 4 3C4 3.35 4.07 3.69 4.18 4H2C0.89 4 0.00999999 4.89 0.00999999 6L0 17C0 18.11 0.89 19 2 19H18C19.11 19 20 18.11 20 17V6C20 4.89 19.11 4 18 4ZM13 2C13.55 2 14 2.45 14 3C14 3.55 13.55 4 13 4C12.45 4 12 3.55 12 3C12 2.45 12.45 2 13 2ZM7 2C7.55 2 8 2.45 8 3C8 3.55 7.55 4 7 4C6.45 4 6 3.55 6 3C6 2.45 6.45 2 7 2ZM18 17H2V15H18V17ZM18 12H2V6H7.08L5 8.83L6.62 10L9 6.76L10 5.4L11 6.76L13.38 10L15 8.83L12.92 6H18V12Z" fill="currentColor" />
</symbol><symbol viewBox="0 0 21 20" fill="none" id="icon-instagram">
<path d="M14.6428 8.69584C14.6326 8.30165 14.6172 7.90672 14.5776 7.51477C14.4884 6.636 13.965 6.03015 13.0994 5.86655C12.6372 5.77889 12.1572 5.76694 11.6845 5.75798C10.819 5.74204 9.95314 5.74378 9.08757 5.75723C8.64109 5.7642 8.19012 5.77989 7.75012 5.84837C6.99834 5.96516 6.48513 6.39595 6.27745 7.14125C6.21096 7.3803 6.17212 7.6333 6.1664 7.88106C6.14398 8.82184 6.13004 9.76336 6.13328 10.7046C6.13552 11.3033 6.14921 11.9039 6.20125 12.5003C6.2782 13.3823 6.80561 13.9861 7.67143 14.1525C8.13684 14.2416 8.62092 14.2531 9.09728 14.262C9.95886 14.2785 10.8209 14.2735 11.683 14.2638C12.0842 14.2593 12.4871 14.2376 12.8865 14.198C13.2568 14.1617 13.6034 14.0404 13.9012 13.8036C14.3838 13.4199 14.5703 12.891 14.5987 12.3043C14.6371 11.5122 14.645 10.7191 14.666 9.92621C14.659 9.92596 14.652 9.92596 14.645 9.92596C14.6453 9.51559 14.6535 9.10571 14.6428 8.69584ZM10.3802 12.6793C8.89807 12.6786 7.71874 11.4873 7.71949 9.99071C7.71999 8.51605 8.91873 7.33971 10.4193 7.34145C11.884 7.34295 13.0591 8.54568 13.0573 10.041C13.0558 11.4975 11.8559 12.6798 10.3802 12.6793ZM13.1574 7.86438C12.8101 7.85816 12.5277 7.5693 12.5342 7.22791C12.5409 6.87979 12.8218 6.60935 13.1736 6.61234C13.5242 6.61533 13.7902 6.89199 13.786 7.24957C13.7822 7.58997 13.4956 7.87086 13.1574 7.86438Z" fill="currentColor" />
<path d="M10.3866 0C4.86348 0 0.386719 4.47701 0.386719 9.99987C0.386719 15.523 4.86373 20 10.3866 20C15.9092 20 20.3865 15.523 20.3865 9.99987C20.3867 4.47726 15.9092 0 10.3866 0ZM15.5738 11.6483C15.5678 12.1937 15.5496 12.7418 15.3679 13.2662C15.0195 14.2722 14.3113 14.8825 13.2771 15.0815C12.8075 15.1716 12.3202 15.1811 11.8401 15.2C11.355 15.2192 10.8687 15.2042 10.3826 15.2042C10.3826 15.2095 10.3826 15.214 10.3824 15.2189C9.68064 15.2065 8.97817 15.2003 8.27645 15.1801C7.6706 15.1629 7.08368 15.0531 6.55776 14.7304C5.86874 14.3076 5.44816 13.6855 5.31394 12.8956C5.23376 12.4235 5.20512 11.9384 5.1979 11.4586C5.18246 10.4299 5.18844 9.40124 5.19965 8.37257C5.20538 7.82698 5.22355 7.27916 5.40558 6.75449C5.75395 5.74872 6.46189 5.13838 7.49605 4.93992C7.96568 4.84953 8.45325 4.82961 8.9331 4.82214C9.96551 4.8062 10.9982 4.81218 12.0303 4.82364C12.5722 4.82936 13.116 4.84804 13.6372 5.02783C14.6477 5.37645 15.261 6.08563 15.4582 7.12551C15.5474 7.5954 15.5678 8.08272 15.5753 8.56257C15.591 9.59074 15.5847 10.6197 15.5738 11.6483Z" fill="currentColor" />
<path d="M10.3844 8.27873C9.43312 8.28172 8.65371 9.06287 8.65546 10.0126C8.65695 10.9623 9.44035 11.744 10.3891 11.742C11.3396 11.7398 12.1202 10.9574 12.1185 10.0076C12.1165 9.05739 11.3323 8.27574 10.3844 8.27873Z" fill="currentColor" />
</symbol><symbol viewBox="0 0 20 16" fill="none" id="icon-iron">
<path fill-rule="evenodd" clip-rule="evenodd" d="M10.5877 6.00133L9.02383 2.75896L14.4647 0.0784434L16.8155 0L17.9654 2.3841L15.317 3.6826L19.2727 11.8839L17.1918 12.9042L13.2361 4.70285L10.5877 6.00133ZM12.4826 6.24839C12.5554 6.23545 12.6237 6.21759 12.6877 6.1954L13.0726 6.97146C12.9491 7.0077 12.8182 7.05938 12.6804 7.1271L10.9529 8.0091C10.144 8.40651 9.82082 9.38692 10.2434 10.1881L11.0717 11.7855C11.4944 12.5864 12.2715 12.6724 12.8488 11.9766C12.8488 11.9766 13.8077 10.7645 14.1597 9.16366L15.1563 11.1732C13.9494 14.0117 11.153 16 7.89585 16C3.53487 16 0 12.4358 0 8.03922C0 3.64246 3.53494 0.0784512 7.89585 0.0784512C8.97803 0.0784512 10.0093 0.297932 10.9484 0.695151L9.02383 1.61691C8.37148 1.92068 8.27961 2.46438 8.37148 3.12499L8.66758 5.2536C8.79258 6.15242 9.62005 6.75836 10.5061 6.60053L12.4826 6.24839ZM2.73728 4.62915C2.77354 4.57136 2.80866 4.51343 2.84407 4.45503C3.10994 4.01651 3.39218 3.55101 4.29742 2.91317C5.33014 2.18549 5.68844 2.04754 6.19023 1.92068C7.06314 1.7006 7.61985 2.22617 7.49478 3.12499L7.19868 5.2536C7.07384 6.15234 6.24636 6.75836 5.3604 6.60053L3.38348 6.24839C2.49738 6.09055 2.25634 5.39629 2.73728 4.62915ZM2.88669 11.9766C2.88669 11.9766 1.31775 10.1584 1.31775 8.0341V7.47152C1.54528 6.88461 2.24329 6.72961 3.05241 7.1271L4.87158 8.0091C5.68062 8.40651 6.01624 9.387 5.5934 10.1881L4.72595 11.7855C4.30349 12.5864 3.4641 12.6724 2.88669 11.9766ZM9.96257 14.2375C9.96257 14.2375 9.22778 14.5825 7.93294 14.5825C6.63833 14.5825 5.90338 14.2375 5.90338 14.2375C5.08774 13.8543 4.93157 13.0068 5.55646 12.354L6.79684 11.0584C7.42174 10.4056 8.44437 10.4056 9.06926 11.0584L10.3096 12.354C10.9346 13.0068 10.7784 13.8543 9.96257 14.2375Z" fill="#008BD1" />
</symbol><symbol viewBox="0 0 14 12" fill="none" id="icon-list">
<path d="M0.142578 8.57143H13.8569V6.85714H0.142578V8.57143ZM0.142578 12H13.8569V10.2857H0.142578V12ZM0.142578 5.14286H13.8569V3.42857H0.142578V5.14286ZM0.142578 0V1.71429H13.8569V0H0.142578Z" fill="currentColor" />
</symbol><symbol viewBox="0 0 100 49" fill="none" id="icon-logo">
<path fill-rule="evenodd" clip-rule="evenodd" d="M85.3453 47.9295V46.2503C85.4286 46.2343 85.5095 46.2191 85.592 46.2022C86.1985 46.0756 86.7938 45.9026 87.3722 45.6807C87.8826 45.4844 88.3889 45.2665 88.8712 45.0101L89.154 44.8611L89.9528 41.4137H85.3461V39.4773H90.4022L90.5264 38.9373C90.6874 38.2475 90.7908 37.4407 90.5897 36.7493V36.7445C90.399 36.0988 89.9696 35.6189 89.3503 35.3521C88.7358 35.0829 88.0147 35.0148 87.3498 35.0204C86.8795 35.0204 86.4116 35.0613 85.9494 35.1454L85.9421 35.147C85.7435 35.1871 85.5424 35.2319 85.3461 35.2896V33.2531C86.3956 33.1281 87.4531 33.0784 88.5067 33.0832H88.5123C89.5097 33.0784 90.5216 33.1698 91.4918 33.4165L91.495 33.4181C92.2449 33.6056 92.9707 33.9132 93.5756 34.4035C94.1084 34.8338 94.4481 35.3794 94.6379 36.0339C94.8695 36.8575 94.7701 37.8005 94.5843 38.6216L92.486 47.6788C92.4564 47.7861 92.4059 47.8606 92.3186 47.9279L92.3122 47.9327L92.3058 47.9375C92.208 48.0137 92.1079 48.0449 91.9845 48.0481H88.9874C88.9665 48.0481 88.9297 48.0457 88.9032 48.0393C88.9048 48.0241 88.9064 48.0064 88.9104 47.9952L89.3775 45.9779L87.9819 46.7919C87.4451 47.1035 86.8851 47.3711 86.3107 47.6027C85.9934 47.7284 85.6714 47.8358 85.3453 47.9295ZM55.4235 48.0401C55.4508 48.0465 55.4884 48.0489 55.5085 48.0489H58.9879C59.1089 48.0457 59.2098 48.0145 59.3068 47.9383L59.314 47.9335L59.3204 47.9287C59.4093 47.8614 59.459 47.7869 59.4862 47.6796L60.8754 41.6845H69.1691L67.7045 47.996C67.7029 48.0072 67.6997 48.0249 67.6981 48.0401C67.7254 48.0465 67.763 48.0489 67.7838 48.0489H71.2625C71.3819 48.0457 71.4844 48.0145 71.5797 47.9383L71.5862 47.9335L71.5942 47.9287C71.6815 47.8614 71.7344 47.7869 71.7616 47.6796L75.0632 33.4365C75.0656 33.4245 75.0688 33.4093 75.0704 33.3933C75.0424 33.3869 75.0055 33.3845 74.9847 33.3837H71.506C71.3843 33.3869 71.2841 33.4181 71.1864 33.4934L71.1832 33.4966L71.18 33.4998C71.0926 33.5671 71.0342 33.6464 71.0069 33.7514L69.6658 39.5382H61.3738L62.7894 33.4365C62.791 33.4245 62.7942 33.4093 62.7958 33.3933C62.7702 33.3869 62.7325 33.3845 62.7117 33.3837H59.2339C59.1121 33.3869 59.0103 33.4181 58.915 33.4934L58.9078 33.4998L58.9014 33.5046C58.8125 33.5703 58.7596 33.6472 58.7323 33.7522L55.4332 47.996C55.4292 48.0072 55.4251 48.0249 55.4235 48.0401ZM85.3453 33.2539V35.2904C85.1121 35.3569 84.8838 35.437 84.6611 35.5332C84.2797 35.6966 83.9224 35.9129 83.6116 36.1885L83.61 36.1909L83.6068 36.1933C83.4025 36.3784 83.1725 36.5274 82.9202 36.6372C82.659 36.7445 82.377 36.7878 82.0974 36.791H79.77C79.7484 36.791 79.7115 36.7878 79.6859 36.7814C79.6859 36.767 79.6891 36.7525 79.6907 36.7397C79.8421 36.114 80.1201 35.562 80.5736 35.0989C81.0663 34.5886 81.6864 34.2257 82.3425 33.9661L82.3481 33.9637C83.1998 33.62 84.1259 33.4181 85.0336 33.2915C85.1362 33.2795 85.2411 33.2667 85.3453 33.2539ZM85.3453 39.4789V41.4153H84.2677H84.2613C83.7173 41.4209 83.1765 41.5026 82.671 41.7045C82.216 41.8872 81.7993 42.1468 81.4613 42.5065L81.4597 42.5097L81.4565 42.5129C81.1376 42.859 80.9117 43.266 80.8059 43.7274C80.6953 44.1985 80.7146 44.672 80.9213 45.1151C81.1288 45.5717 81.5021 45.893 81.9484 46.1053L81.9548 46.1077L81.9612 46.1109C82.4643 46.3376 83.0411 46.4081 83.5851 46.4129H83.5923H83.5987C84.1852 46.4081 84.7692 46.3561 85.3461 46.2511V47.9303C85.0489 48.0161 84.7452 48.0866 84.4392 48.1474C83.7285 48.2884 82.9987 48.3453 82.2744 48.3501C81.3779 48.3493 80.471 48.2676 79.6002 48.0425C78.9368 47.8686 78.2742 47.6035 77.7287 47.1845L77.723 47.1812C77.2768 46.8424 76.9595 46.4209 76.7761 45.8922L76.7745 45.8898C76.567 45.3001 76.6142 44.6424 76.7488 44.0431C76.9211 43.3253 77.2239 42.6707 77.6902 42.1011L77.6918 42.1003C78.1725 41.5106 78.7557 41.0412 79.4199 40.6734C80.1682 40.2568 80.9774 39.9708 81.809 39.7825C82.7423 39.571 83.6965 39.4797 84.6555 39.4797H85.3453V39.4789ZM37.8805 33.7522L34.5814 47.996C34.5782 48.0072 34.5749 48.0241 34.5733 48.0401C34.5998 48.0465 34.6374 48.0489 34.6575 48.0489H39.031C39.188 48.0441 39.3395 48.0072 39.4853 47.9504C39.6864 47.8726 39.8786 47.7725 40.0557 47.6491C40.2239 47.5322 40.3778 47.3984 40.514 47.2445L50.1102 35.4667L47.2052 47.9968C47.2036 48.008 47.2004 48.0257 47.1988 48.0409C47.2261 48.0473 47.2637 48.0497 47.2846 48.0497H50.5381C50.6598 48.0465 50.7616 48.0153 50.8569 47.9391L50.8633 47.9343L50.8705 47.9295C50.9595 47.8622 51.01 47.7877 51.0364 47.6804L54.3388 33.4373C54.342 33.4253 54.3436 33.4101 54.3452 33.3941C54.3203 33.3877 54.2819 33.3853 54.2595 33.3845H49.8763C49.7273 33.3845 49.5623 33.4301 49.4237 33.4814C49.2242 33.5559 49.0367 33.6569 48.8612 33.7738C48.6922 33.8908 48.5416 34.0262 48.4094 34.1824L38.7995 46.0043L41.7125 33.4365C41.7165 33.4245 41.7197 33.4093 41.7197 33.3933C41.6941 33.3869 41.6556 33.3845 41.634 33.3837H38.3805C38.2587 33.3869 38.1585 33.4181 38.0616 33.4934L38.0544 33.4998L38.048 33.5046C37.9599 33.5711 37.9078 33.6472 37.8805 33.7522ZM8.79361 28.9044C8.81124 28.8235 8.82165 28.7209 8.79041 28.6424C8.75836 28.5719 8.71269 28.5246 8.64459 28.4846L8.64139 28.4822L8.63738 28.4798C8.54205 28.4189 8.42668 28.4012 8.31532 28.4012H5.36705C5.1996 28.4012 5.04178 28.4429 4.89116 28.5166L4.88635 28.5182C4.72131 28.5975 4.58351 28.7025 4.46414 28.8379C4.35839 28.9597 4.29029 29.0942 4.24943 29.2489L0.0168983 47.5161C-0.000727205 47.5995 -0.0119434 47.706 0.0217053 47.7877L0.0233077 47.7917L0.0265123 47.7957C0.0577576 47.8734 0.10102 47.9239 0.173125 47.9688L0.176329 47.972L0.181136 47.9744C0.268463 48.0321 0.393444 48.0481 0.497595 48.0497H28.9412C29.1094 48.0465 29.2649 48.0104 29.4163 47.9343L29.4211 47.9319C29.5901 47.8486 29.7311 47.7413 29.8521 47.5994L29.8569 47.5954C29.9555 47.4825 30.0292 47.3559 30.0628 47.2093L34.3002 28.9276C34.321 28.8355 34.3306 28.7361 34.2953 28.6448C34.2649 28.5751 34.2232 28.5254 34.1559 28.4854L34.1519 28.483L34.1487 28.4806C34.0542 28.4197 33.938 28.402 33.8251 28.402H30.8776C30.7094 28.402 30.5491 28.4477 30.3985 28.519C30.2359 28.5967 30.0965 28.6985 29.9771 28.8307C29.8801 28.946 29.8064 29.075 29.7672 29.2208L26.0418 45.3025H17.7498L21.5433 28.934C21.5617 28.8443 21.5737 28.7321 21.5401 28.6448C21.5088 28.5751 21.4664 28.5254 21.3999 28.4854L21.3967 28.483L21.3935 28.4806C21.2973 28.4197 21.182 28.402 21.0714 28.402H18.1223C17.9565 28.402 17.7954 28.4453 17.6472 28.5174L17.6416 28.519C17.4806 28.5967 17.3404 28.6985 17.221 28.8307C17.1241 28.946 17.0512 29.075 17.0119 29.2208L13.2849 45.3025H4.99451L8.79361 28.9044Z" fill="currentColor" />
<path fill-rule="evenodd" clip-rule="evenodd" d="M37.0754 24.3041C36.9232 24.3073 36.775 24.341 36.638 24.4075L36.6324 24.4099C36.4857 24.4796 36.36 24.5709 36.251 24.6911C36.1621 24.7968 36.0964 24.9106 36.0619 25.0452L35.7687 26.3086C35.7519 26.3927 35.7479 26.4841 35.7767 26.5658C35.8064 26.6347 35.8464 26.6796 35.9105 26.7196L35.9137 26.722L35.9169 26.7244C35.9946 26.7749 36.1124 26.7901 36.2037 26.7925H58.7676C58.8758 26.7925 59.2107 26.8045 59.3741 26.7789C59.3773 26.557 59.2235 26.0859 59.1714 25.9417C58.5 24.0453 58.3126 23.9612 58.782 21.9335L61.679 9.43778C61.6935 9.36247 61.7047 9.27354 61.6758 9.20064C61.6486 9.14135 61.6125 9.09729 61.5565 9.06364L61.546 9.05803L61.538 9.05242C61.4507 8.99794 61.3449 8.98192 61.2448 8.98192H53.5729C52.5787 8.97711 51.5828 9.04762 50.5966 9.19263C49.652 9.33603 48.7283 9.5884 47.8422 9.95453C46.9809 10.311 46.2038 10.8134 45.5084 11.4367C44.7553 12.1169 44.1745 12.9573 43.721 13.8602L40.5781 20.2254H44.6416L47.5217 14.4426C47.8029 13.8602 48.1747 13.3322 48.6361 12.878L48.6393 12.8756C49.0944 12.4309 49.6224 12.0808 50.2112 11.8413C50.8209 11.5889 51.4658 11.4711 52.1244 11.4711H57.1621L54.1874 24.3025H37.0754V24.3041Z" fill="currentColor" />
<path fill-rule="evenodd" clip-rule="evenodd" d="M74.1066 26.263C75.3828 25.7486 76.4708 24.9779 77.3465 23.9172C78.2838 22.7803 78.8559 21.4151 79.1915 19.9915C79.4695 18.7753 79.6106 17.3637 79.1787 16.1683C78.815 15.1661 78.1268 14.4723 77.1726 14.0036C75.9172 13.3907 74.3662 13.2289 72.9834 13.2289C72.4025 13.2289 71.8185 13.2585 71.236 13.325V15.0643C71.5813 15.0075 71.933 14.9818 72.2847 14.9834C73.0707 14.9794 73.9031 15.1068 74.5721 15.545C75.2378 15.9817 75.5911 16.6538 75.7209 17.4278C75.882 18.3403 75.7209 19.3834 75.5134 20.2759C75.2923 21.2381 74.9606 22.2387 74.4278 23.0751C73.976 23.7938 73.3871 24.3914 72.626 24.7792C72.1846 25.0035 71.7183 25.1477 71.2368 25.2295V26.968C72.2198 26.8542 73.1868 26.6315 74.1066 26.263ZM71.236 13.325C70.253 13.4372 69.282 13.6575 68.3623 14.0236C67.0892 14.5332 66.0004 15.2991 65.1272 16.355C64.1898 17.4927 63.6178 18.8522 63.2837 20.2775C63.0049 21.4921 62.8631 22.9093 63.2957 24.107C63.6562 25.1133 64.346 25.8119 65.2994 26.2846C66.5548 26.9023 68.1011 27.0681 69.4847 27.0681C70.0679 27.0681 70.6544 27.0385 71.2368 26.9704V25.2319C70.8907 25.2895 70.5382 25.3144 70.1857 25.3128C69.3966 25.3176 68.5634 25.1894 67.8936 24.744C67.2286 24.3017 66.8817 23.6199 66.7543 22.8452C66.5949 21.9335 66.7559 20.8864 66.9618 19.9939C67.1846 19.0309 67.5138 18.035 68.0482 17.1986C68.4993 16.484 69.0881 15.8935 69.846 15.5122C70.2891 15.2903 70.7577 15.1469 71.2368 15.0667V13.325H71.236Z" fill="currentColor" />
<path fill-rule="evenodd" clip-rule="evenodd" d="M81.3066 26.7853C81.3307 26.7917 81.3643 26.7933 81.382 26.7941C84.5185 26.7941 85.1154 25.2559 86.2482 21.025H93.7647L92.4388 26.7461C92.4356 26.7565 92.434 26.7717 92.4324 26.7853C92.4564 26.7917 92.4908 26.7933 92.5109 26.7941H95.6634C95.774 26.7909 95.8661 26.7629 95.9535 26.694L95.9583 26.6892L95.9655 26.6844C96.0448 26.6251 96.0913 26.5562 96.1161 26.4601L99.1084 13.5494C99.1116 13.5381 99.1148 13.5229 99.1148 13.5093C99.09 13.5029 99.0564 13.5013 99.0363 13.5005H95.8838C95.7748 13.5037 95.6827 13.5325 95.5953 13.6006L95.5921 13.6022L95.5889 13.6046C95.5088 13.6655 95.4575 13.7376 95.4319 13.8346L94.2157 19.079H90.4591H86.7025H83.09L81.3139 26.7461C81.3098 26.7565 81.3082 26.7717 81.3066 26.7853Z" fill="currentColor" />
<path fill-rule="evenodd" clip-rule="evenodd" d="M87.1207 17.2644L87.9811 13.5494C87.9843 13.5382 87.9859 13.5229 87.9875 13.5093C87.9635 13.5029 87.9298 13.5013 87.9098 13.5005H86.5142C85.3621 13.5005 84.3911 13.4605 83.5739 16.9856L83.509 17.2652H87.1207V17.2644Z" fill="currentColor" />
<path fill-rule="evenodd" clip-rule="evenodd" d="M28.9676 26.2629C30.0812 25.8135 31.0546 25.1686 31.867 24.3041H29.6766C28.8755 24.3041 28.1721 24.4307 27.4887 24.7792C26.7284 25.1654 25.8919 25.316 25.0435 25.3104C24.256 25.3152 23.043 25.187 22.3741 24.7415C21.2636 24.0926 21.2084 23.9011 20.1701 23.8426C19.2215 23.7906 18.1503 23.8282 17.209 23.8763C15.3927 23.97 11.8933 24.0125 9.4233 23.8218C7.64953 23.684 6.58719 23.6303 6.55755 22.8156C6.45339 20.0604 7.27218 20.7838 7.98521 20.5763C8.81361 20.3352 9.67406 20.0956 10.2805 19.8545C12.6568 18.9083 14.5531 18.1167 16.6329 16.5537C13.9194 17.4398 4.71568 19.2079 10.2341 16.1339C10.6018 15.928 10.9719 15.7325 11.3389 15.5466C14.3352 14.0348 17.2931 13.1504 20.4248 12.3043C24.8593 11.105 30.4538 9.82554 34.7664 8.43472C38.5783 7.20575 42.4207 5.35587 46.255 4.01232C49.8002 2.77052 52.3999 1.84198 56.2022 1.72741L60.7897 1.58961C64.9669 1.46383 69.1666 1.7194 72.3584 2.57424C77.8496 4.04597 81.2081 6.54639 86.8338 10.0627C86.2153 10.7797 85.6329 11.6105 85.1185 12.5984C86.1256 12.1024 87.3217 12.2482 88.2094 12.2987C89.1107 10.7228 89.8318 9.78788 90.3036 9.33282L90.7555 8.93785C91.4661 8.31856 91.8507 7.73611 92.8153 7.71929L94.3311 7.69125C95.8949 6.75309 94.7156 6.90611 93.3993 6.50553C91.5999 5.95593 90.8628 4.94487 89.4977 3.63097C88.9136 3.06855 88.5948 3.66942 88.2527 4.07882C87.8152 4.60438 87.4723 5.0995 87.8689 5.42877L90.0633 7.25382C89.5185 7.63116 88.9625 8.03895 88.4153 8.50362C83.0051 5.46002 79.375 2.77693 74.3549 1.29559C70.6576 0.206008 65.688 -0.112053 60.9884 0.0329573L55.9186 0.187582C48.0817 0.0858345 41.5466 3.72711 34.47 6.46307C31.2581 7.70407 26.5393 8.77201 21.8381 9.99378C18.3899 10.8895 13.1102 12.6016 9.30312 14.8472C5.94946 16.8253 4.14525 18.8706 4.05712 21.4752C4.00505 23.0038 4.14445 24.067 4.3856 24.4603C4.78778 25.1141 5.7644 25.8936 7.67356 25.9665C10.7428 26.0835 14.0957 26.1932 17.3315 26.0803C18.3282 26.045 19.2359 25.8263 20.158 26.2838C22.6513 27.508 26.4488 27.2724 28.9676 26.2629Z" fill="#BBBBBB" />
</symbol><symbol viewBox="0 0 18 12" fill="none" id="icon-menu">
<path d="M0 12H12V10H0V12ZM0 0V2H18V0H0ZM0 7H18V5H0V7Z" fill="currentColor" />
</symbol><symbol viewBox="0 0 20 13" fill="none" id="icon-moto">
<path d="M15.5 4C15.47 4 15.45 4.01 15.42 4.01L11.41 0H7V2H10.59L12.59 4H4.49C2.01 4 0 6.02 0 8.5C0 10.99 2.01 13 4.5 13C6.72 13 8.56 11.38 8.92 9.27L11.04 8C11.02 8.17 11 8.33 11 8.5C11 10.99 13.01 13 15.5 13C17.99 13 20 10.99 20 8.5C20 6.01 17.99 4 15.5 4ZM6.84 9.26C6.52 10.27 5.58 11 4.47 11C3.09 11 1.97 9.88 1.97 8.5C1.97 7.12 3.09 6 4.47 6C5.59 6 6.52 6.74 6.84 7.75H4V9.25L6.84 9.26ZM15.47 11C14.09 11 12.97 9.88 12.97 8.5C12.97 7.12 14.09 6 15.47 6C16.85 6 17.97 7.12 17.97 8.5C17.97 9.88 16.85 11 15.47 11Z" fill="currentColor" />
</symbol><symbol viewBox="0 0 17 16" fill="none" id="icon-nonspikes">
<path fill-rule="evenodd" clip-rule="evenodd" d="M3.22328 10.0708L13.2941 15.9368V16L2 16L2 11.2941L3.22328 10.0708ZM10.4706 8.47059L12.966 10.966L4.82353 6.22329V3.7647L7.64706 0L10.4706 3.76471V8.47059ZM16.4422 13.9908L1.00659 5L-3.45707e-05 6.72821L15.4356 15.719L16.4422 13.9908Z" fill="#008BD1" />
</symbol><symbol viewBox="0 0 16 20" fill="none" id="icon-oil">
<path d="M13.66 5.66L8 0L2.34 5.66C-0.78 8.78 -0.78 13.85 2.34 16.97C3.9 18.53 5.95 19.31 8 19.31C10.05 19.31 12.1 18.53 13.66 16.97C16.78 13.85 16.78 8.78 13.66 5.66ZM8 17.32C6.4 17.32 4.89 16.7 3.76 15.56C2.62 14.42 2 12.92 2 11.32C2 9.72 2.62 8.21 3.76 7.08L8 2.83V17.32Z" fill="currentColor" />
</symbol><symbol viewBox="0 0 20 20" fill="none" id="icon-phone">
<path d="M12.3486 4.40631H11.4811C11.4953 4.45213 11.505 4.49969 11.505 4.54974V4.70538C11.505 4.97929 11.2809 5.2034 11.007 5.2034H9.29498C9.02107 5.2034 8.79696 4.97929 8.79696 4.70538V4.54974C8.79696 4.49969 8.80667 4.45188 8.82087 4.40631H7.651C7.23913 4.40631 6.90396 4.74148 6.90396 5.15335V14.5511C6.90396 14.963 7.23913 15.2982 7.651 15.2982H12.3489C12.7607 15.2982 13.0959 14.963 13.0959 14.5511V5.15335C13.0957 4.74123 12.7605 4.40631 12.3486 4.40631ZM9.99994 14.82C9.57014 14.82 9.22177 14.4717 9.22177 14.0419C9.22177 13.6121 9.57014 13.2637 9.99994 13.2637C10.4297 13.2637 10.7781 13.6121 10.7781 14.0419C10.7781 14.4717 10.4295 14.82 9.99994 14.82Z" fill="currentColor" />
<path d="M9.99988 0C4.47701 0 0 4.47701 0 9.99988C0 15.523 4.47701 20 9.99988 20C15.5227 20 19.9998 15.523 19.9998 9.99988C19.9998 4.47726 15.5225 0 9.99988 0ZM14.0917 14.5511C14.0917 15.512 13.3095 16.2942 12.3486 16.2942H7.65068C6.68974 16.2942 5.90759 15.512 5.90759 14.5511V5.15333C5.90759 4.19239 6.68974 3.41024 7.65068 3.41024H12.3486C13.3095 3.41024 14.0917 4.19239 14.0917 5.15333V14.5511Z" fill="currentColor" />
</symbol><symbol viewBox="0 0 14 22" fill="none" id="icon-phone-nobg">
<path d="M11.99 0.00999999L1.99 0C0.89 0 0 0.9 0 2V20C0 21.1 0.89 22 1.99 22H11.99C13.09 22 13.99 21.1 13.99 20V2C13.99 0.9 13.09 0.00999999 11.99 0.00999999ZM11.99 18H1.99V4H11.99V18Z" fill="currentColor" />
</symbol><symbol viewBox="0 0 14 20" fill="none" id="icon-placemark">
<path d="M7 0C3.13 0 0 3.13 0 7C0 12.25 7 20 7 20C7 20 14 12.25 14 7C14 3.13 10.87 0 7 0ZM7 9.5C5.62 9.5 4.5 8.38 4.5 7C4.5 5.62 5.62 4.5 7 4.5C8.38 4.5 9.5 5.62 9.5 7C9.5 8.38 8.38 9.5 7 9.5Z" fill="currentColor" />
</symbol><symbol viewBox="0 0 19 20" fill="none" id="icon-plane">
<path d="M19 14V12L11 7V1.5C11 0.67 10.33 0 9.5 0C8.67 0 8 0.67 8 1.5V7L0 12V14L8 11.5V17L6 18.5V20L9.5 19L13 20V18.5L11 17V11.5L19 14Z" fill="currentColor" />
</symbol><symbol viewBox="0 0 19 18" fill="none" id="icon-repair">
<path d="M8.67264 11.1273L5.23627 7.69095L4.09082 8.83641L8.67264 13.4182L18.4908 3.60004L17.3454 2.45459L8.67264 11.1273Z" fill="currentColor" />
<path fill-rule="evenodd" clip-rule="evenodd" d="M16.8009 7.378C16.8009 7.378 16.9975 8.27123 16.9975 9.08101C16.9975 9.08996 16.9975 9.08996 16.9973 9.08938C16.997 9.09917 17.2222 9.10714 17.498 9.10714C17.7737 9.10714 17.974 9.39498 17.9433 9.74686L17.7549 11.0244C17.676 11.3686 17.4007 11.5869 17.1429 11.5098C16.8853 11.4325 16.5747 11.6402 16.4528 11.9711L16.0248 12.9267C15.8574 13.2366 15.9007 13.6074 16.121 13.7514C16.3411 13.8952 16.3504 14.2439 16.1416 14.5266L15.2937 15.5193C15.0477 15.7694 14.706 15.8098 14.5343 15.6092C14.3626 15.409 13.9946 15.4183 13.7161 15.6306L12.8538 16.1935C12.5486 16.3636 12.3881 16.7003 12.4972 16.9415C12.6065 17.1831 12.4288 17.4819 12.1025 17.6057L10.8576 17.9772C10.5173 18.0523 10.2086 17.8989 10.1715 17.6363C10.1342 17.3734 9.82073 17.1901 9.47454 17.2285C9.47454 17.2285 9.34281 17.2432 8.95149 17.2432C8.56572 17.2432 8.44495 17.2298 8.44495 17.2298C8.09868 17.1917 7.78568 17.3758 7.74897 17.6386C7.7125 17.9015 7.404 18.0557 7.06362 17.9813L5.81752 17.6123C5.4912 17.4891 5.31287 17.1908 5.42161 16.9493C5.53028 16.7076 5.36904 16.3712 5.06357 16.2018L4.20005 15.6406C3.92123 15.4288 3.55312 15.4199 3.38191 15.6212C3.21061 15.8221 2.86883 15.7824 2.62223 15.5329L1.77228 14.5417C1.56288 14.2594 1.57155 13.9104 1.79142 13.7662C2.01128 13.6221 2.0538 13.251 1.88569 12.9416L1.45912 11.9958C1.33631 11.665 1.03043 11.4561 0.779413 11.5312C0.528395 11.6064 0.26225 11.3854 0.187844 11.0404L0.00223745 9.73973C-0.0231097 9.38743 0.169856 9.09859 0.431095 9.09826C0.692416 9.09768 0.905903 9.0922 0.90574 9.08615V9.08076C0.90574 8.2884 1.09159 7.42603 1.09159 7.42603C1.16592 7.08112 1.02111 6.73803 0.769683 6.66378C0.518419 6.58979 0.411716 6.25823 0.532728 5.92675L1.06952 4.72851C1.23591 4.41794 1.55234 4.28149 1.77269 4.42474C1.99321 4.568 2.34398 4.45361 2.55224 4.1705L3.22181 3.38245C3.46752 3.13227 3.52769 2.76363 3.35574 2.5633C3.18379 2.36322 3.27054 2.02552 3.54863 1.81292L4.63643 1.09828C4.94141 0.9279 5.28065 0.985801 5.39013 1.22686C5.4997 1.46808 5.8557 1.56306 6.18129 1.43781L7.165 1.14424C7.50498 1.06767 7.75224 0.790283 7.71463 0.527657C7.6771 0.265114 7.93041 0.029199 8.27766 0.00373269L9.57126 0C9.91877 0.0233925 10.1732 0.257815 10.1372 0.520607C10.1011 0.783648 10.3499 1.05963 10.6904 1.13404L11.6757 1.4213C12.0022 1.54432 12.3577 1.4471 12.4659 1.20513C12.5741 0.963239 12.9129 0.903264 13.219 1.07174L14.3108 1.77974C14.5903 1.9906 14.6792 2.32763 14.5083 2.52896C14.3374 2.73028 14.3999 3.09851 14.647 3.34745L14.9469 3.69595L13.0147 5.62816C12.0412 4.45111 10.5811 3.70157 8.95173 3.70157C6.38709 3.70157 4.24188 5.55847 3.75361 8.01649L2.93384 8.83627L3.67143 9.57386C3.90527 12.1731 5.96962 14.244 8.54195 14.4444L8.67274 14.5752L8.7901 14.4578C8.84378 14.4595 8.89766 14.4603 8.95173 14.4603C11.8753 14.4603 14.254 12.047 14.2541 9.08092C14.2541 9.05206 14.2539 9.02324 14.2534 8.99448L17.3572 5.89069C17.4712 6.21598 17.3661 6.5389 17.1191 6.61335C16.8683 6.68925 16.725 7.03325 16.8009 7.378Z" fill="currentColor" />
</symbol><symbol viewBox="0 0 31 28" fill="none" id="icon-scales">
<path fill-rule="evenodd" clip-rule="evenodd" d="M15.5002 0C16.0709 0 16.5335 0.462645 16.5335 1.03335V2.06669H25.8337C26.4044 2.06669 26.867 2.52934 26.867 3.10004C26.867 3.35831 26.7723 3.59445 26.6156 3.7756L26.7051 3.92802C26.8256 4.1341 26.9973 4.43019 27.2031 4.79225C27.6143 5.5156 28.1637 6.5059 28.7143 7.56977C29.2633 8.63048 29.8216 9.78006 30.2453 10.8184C30.6476 11.8044 31 12.8544 31 13.6449C31 16.5272 28.5324 18.7552 25.6266 18.7552C22.7208 18.7552 20.2532 16.5272 20.2532 13.6449C20.2532 12.8544 20.6056 11.8044 21.0079 10.8184C21.4315 9.78006 21.9899 8.63048 22.5388 7.56977C23.0895 6.5059 23.6389 5.5156 24.0501 4.79225C24.1952 4.53704 24.3233 4.31462 24.4285 4.13339H16.5335V24.8003C16.5335 24.853 16.5296 24.9048 16.522 24.9553H22.0616C22.6323 24.9553 23.0949 25.418 23.0949 25.9887C23.0949 26.5594 22.6323 27.022 22.0616 27.022H9.29972C8.72901 27.022 8.26637 26.5594 8.26637 25.9887C8.26637 25.418 8.72901 24.9553 9.29972 24.9553H14.4784C14.4708 24.9048 14.4669 24.853 14.4669 24.8003V4.13339H6.3021C6.33454 4.18478 6.37995 4.25699 6.43657 4.34774C6.55738 4.54135 6.72939 4.81957 6.93555 5.16017C7.34739 5.84055 7.89788 6.7737 8.44965 7.7807C8.99963 8.78441 9.56004 9.87805 9.98578 10.8759C10.3901 11.8235 10.7468 12.8473 10.7468 13.6449C10.7468 16.5272 8.27924 18.7552 5.3734 18.7552C2.46757 18.7552 0 16.5272 0 13.6449C0 12.8473 0.356752 11.8235 0.761026 10.8759C1.18677 9.87805 1.74718 8.78441 2.29715 7.7807C2.84893 6.7737 3.39942 5.84055 3.81126 5.16017C4.01742 4.81957 4.18942 4.54135 4.31023 4.34774C4.37065 4.25091 4.41829 4.17519 4.45105 4.12335L4.48875 4.06382L4.50254 4.04215L5.3734 4.5984L6.10142 4.13339H6.10134L5.3734 4.5984C4.50254 4.04215 4.50262 4.04203 4.50254 4.04215L4.56682 3.94151C4.30444 3.75412 4.13339 3.44705 4.13339 3.10004C4.13339 2.52934 4.59603 2.06669 5.16674 2.06669H14.4669V1.03335C14.4669 0.462645 14.9295 0 15.5002 0ZM5.3734 6.57252C5.00366 7.19069 4.55618 7.9588 4.1096 8.77381C3.57654 9.74664 3.05385 10.7699 2.66627 11.6768H8.08054C7.69296 10.7699 7.17026 9.74664 6.63721 8.77381C6.19063 7.9588 5.74314 7.19069 5.3734 6.57252ZM5.3734 16.6886C3.52373 16.6886 2.12458 15.3232 2.06844 13.7435H8.67836C8.62223 15.3232 7.22307 16.6886 5.3734 16.6886ZM24.3743 8.51971C24.8162 7.66582 25.2589 6.85787 25.6266 6.20329C25.9943 6.85787 26.437 7.66582 26.8789 8.51971C27.4149 9.55542 27.9416 10.643 28.3317 11.5991C28.3424 11.6252 28.3529 11.6511 28.3632 11.6768H22.89C22.9003 11.6511 22.9108 11.6252 22.9214 11.5991C23.3116 10.643 23.8382 9.55542 24.3743 8.51971ZM22.3216 13.7435C22.3778 15.3232 23.7769 16.6885 25.6266 16.6885C27.4763 16.6885 28.8754 15.3232 28.9316 13.7435H22.3216Z" fill="currentColor" />
</symbol><symbol viewBox="0 0 20 20" fill="none" id="icon-search">
<path d="M9 17C13.4183 17 17 13.4183 17 9C17 4.58172 13.4183 1 9 1C4.58172 1 1 4.58172 1 9C1 13.4183 4.58172 17 9 17Z" stroke="currentColor" stroke-width="2" stroke-linecap="round" stroke-linejoin="round" />
<path d="M19 19L14.65 14.65" stroke="currentColor" stroke-width="2" stroke-linecap="round" stroke-linejoin="round" />
</symbol><symbol viewBox="0 0 19 18" fill="none" id="icon-services">
<path d="M17.872 14.7124L10.3926 7.23295C11.1323 5.34256 10.7213 3.1234 9.15969 1.56176C7.51587 -0.0820609 5.05013 -0.410826 3.07754 0.493277L6.61177 4.0275L4.14603 6.49323L0.529618 2.95901C-0.456677 4.9316 -0.0457205 7.39734 1.5981 9.04116C3.15974 10.6028 5.3789 11.0137 7.26929 10.274L14.7487 17.7534C15.0775 18.0822 15.5706 18.0822 15.8994 17.7534L17.7898 15.863C18.2007 15.5343 18.2007 14.9589 17.872 14.7124Z" fill="currentColor" />
</symbol><symbol viewBox="0 0 20 21" fill="none" id="icon-settings">
<path fill-rule="evenodd" clip-rule="evenodd" d="M15.6709 18.3634V11.2221L17.6298 13.2625V18.3634C17.6298 19.4856 16.7483 20.4038 15.6709 20.4038H1.95886C0.881489 20.4038 0 19.4856 0 18.3634V4.08076C0 2.95855 0.881489 2.04038 1.95886 2.04038H7.34574C7.09109 2.6729 6.92458 3.35643 6.87561 4.08076H1.95886V18.3634H15.6709ZM17.6298 4.59086C17.6298 5.48862 17.3751 6.31498 16.9442 7.02911L20 10.2019L18.6092 11.6506L15.5534 8.46758C14.8776 8.91646 14.0744 9.18171 13.2125 9.18171C10.7835 9.18171 8.81489 7.13113 8.81489 4.59086C8.81489 2.05058 10.7835 0 13.2223 0C15.6611 0 17.6298 2.05058 17.6298 4.59086ZM10.7738 4.59086C10.7738 5.99872 11.8707 7.14133 13.2223 7.14133C14.5739 7.14133 15.6709 5.99872 15.6709 4.59086C15.6709 3.18299 14.5739 2.04038 13.2223 2.04038C11.8707 2.04038 10.7738 3.18299 10.7738 4.59086ZM11.9715 12.7525C11.9715 12.9075 11.9599 13.0567 11.9426 13.2001L12.9088 13.9576C13.0014 14.0265 13.0245 14.147 12.9667 14.2503L12.0409 15.8399C11.9831 15.9432 11.8616 15.9833 11.7574 15.9432L10.6061 15.4841C10.3688 15.662 10.1085 15.8169 9.82496 15.9317L9.65138 17.1483C9.63981 17.263 9.54145 17.3434 9.42574 17.3434H7.57426C7.45855 17.3434 7.36597 17.263 7.34283 17.1483L7.16925 15.9317C6.88575 15.8169 6.63117 15.6677 6.38816 15.4841L5.23678 15.9432C5.13264 15.9776 5.01113 15.9432 4.95327 15.8399L4.02754 14.2503C3.97547 14.1527 3.99861 14.0265 4.0854 13.9576L5.06321 13.2001C5.04006 13.0567 5.02849 12.9017 5.02849 12.7525C5.02849 12.6033 5.04585 12.4484 5.06899 12.3049L4.09118 11.5474C3.99861 11.4785 3.97547 11.358 4.03332 11.2547L4.95906 9.66516C5.01692 9.56186 5.13842 9.52169 5.24257 9.56186L6.39395 10.0209C6.63117 9.84305 6.89153 9.68811 7.17504 9.57334L7.34862 8.35676C7.36597 8.24199 7.45855 8.16165 7.57426 8.16165H9.42574C9.54145 8.16165 9.63981 8.24199 9.65717 8.35676L9.83075 9.57334C10.1143 9.68811 10.3688 9.83731 10.6118 10.0209L11.7632 9.56186C11.8674 9.52743 11.9889 9.56186 12.0467 9.66516L12.9725 11.2547C13.0245 11.3523 13.0014 11.4785 12.9146 11.5474L11.9368 12.3049C11.9599 12.4484 11.9715 12.5976 11.9715 12.7525ZM6.76425 12.7525C6.76425 13.6994 7.54533 14.4741 8.5 14.4741C9.45467 14.4741 10.2358 13.6994 10.2358 12.7525C10.2358 11.8056 9.45467 11.0309 8.5 11.0309C7.54533 11.0309 6.76425 11.8056 6.76425 12.7525Z" fill="currentColor" />
</symbol><symbol viewBox="0 0 18 22" fill="none" id="icon-shield">
<path d="M9 0L0 4V10C0 15.55 3.84 20.74 9 22C14.16 20.74 18 15.55 18 10V4L9 0ZM7 16L3 12L4.41 10.59L7 13.17L13.59 6.58L15 8L7 16Z" fill="currentColor" />
</symbol><symbol viewBox="0 0 13 16" fill="none" id="icon-spikes">
<path d="M12.1614 11.2941L9.32646 8.47059L9.32646 3.76471L6.49155 4.59993e-07L3.65663 3.76471L3.65663 8.47059L0.821718 11.2941L0.821717 16L12.1614 16L12.1614 11.2941Z" fill="#008BD1" />
</symbol><symbol viewBox="0 0 18 16" fill="none" id="icon-steel">
<path fill-rule="evenodd" clip-rule="evenodd" d="M10.4653 1.87797C9.52986 1.45027 8.48974 1.21191 7.39394 1.21191C3.31024 1.21191 0 4.52215 0 8.60585C0 12.6894 3.31017 15.9998 7.39394 15.9998C10.5433 15.9998 13.2328 14.0309 14.2985 11.2567C14.0629 11.2929 13.8215 11.3116 13.5758 11.3116C13.2687 11.3116 12.9685 11.2823 12.6778 11.2265C12.3505 11.8636 12.0321 12.2628 12.0321 12.2628C11.4915 12.9091 10.7638 12.8293 10.3679 12.0854L9.59229 10.6017C9.34216 10.1314 9.37102 9.59457 9.61738 9.16999C9.2231 8.56743 8.96267 7.86926 8.87828 7.11769C8.47947 6.90327 8.18518 6.50759 8.11662 6.01857L7.83933 4.04153C7.72229 3.20671 8.19496 2.75116 9.06096 2.92297C9.06096 2.92297 9.3042 2.97098 9.6758 3.11699C9.89926 2.67758 10.164 2.26274 10.4653 1.87797ZM2.66328 5.27686C2.63012 5.33111 2.59724 5.38491 2.56328 5.43858C2.11291 6.1511 2.33863 6.79593 3.16841 6.94253L5.01966 7.2696C5.8493 7.41619 6.62418 6.85332 6.74109 6.01857L7.01836 4.04153C7.13548 3.20671 6.61416 2.71856 5.79674 2.92297C5.32684 3.0408 4.99132 3.16893 4.02425 3.84479C3.17655 4.43722 2.91226 4.86957 2.66328 5.27686ZM1.23398 8.6011C1.23398 10.5742 2.70319 12.2628 2.70319 12.2628C3.2439 12.9091 4.02993 12.8293 4.42554 12.0854L5.23785 10.6017C5.63381 9.85766 5.31953 8.94699 4.56191 8.57787L2.85838 7.75867C2.10069 7.38949 1.44706 7.53345 1.23398 8.07857V8.6011ZM7.42867 14.6832C8.6412 14.6832 9.32929 14.3628 9.32929 14.3628C10.0932 14.0068 10.2395 13.2198 9.6543 12.6134L8.49276 11.41C7.90759 10.8037 6.94997 10.8037 6.36479 11.41L5.20326 12.6134C4.61809 13.2198 4.76433 14.0068 5.52813 14.3628C5.52813 14.3628 6.21635 14.6832 7.42867 14.6832Z" fill="#008BD1" />
<path d="M14.2045 0C14.2045 0 14.5745 1.32521 14.5745 2.40037C14.5745 3.43054 13.8995 4.26567 12.8695 4.26567C11.8345 4.26567 11.0545 3.43054 11.0545 2.40037L11.0695 2.22035C10.0595 3.42053 9.45454 4.97578 9.45454 6.66604C9.45454 8.87639 11.2445 10.6667 13.4545 10.6667C15.6645 10.6667 17.4545 8.87639 17.4545 6.66604C17.4545 3.97062 16.1595 1.56524 14.2045 0ZM13.3095 9.16643C12.4195 9.16643 11.6995 8.46632 11.6995 7.59619C11.6995 6.78606 12.2245 6.21597 13.1045 6.03594C13.9895 5.85592 14.9045 5.43085 15.4145 4.74574C15.6095 5.39084 15.7095 6.07095 15.7095 6.76606C15.7095 8.09126 14.6345 9.16643 13.3095 9.16643Z" fill="#F3CA2C" />
</symbol><symbol viewBox="0 0 16 16" fill="none" id="icon-summer">
<path d="M4.18909 3.13425L2.88 1.82648L1.85455 2.85662L3.15636 4.16438L4.18909 3.13425ZM2.18182 7.26941H0V8.73059H2.18182V7.26941ZM8.72727 0H7.27273V2.15525H8.72727V0ZM14.1455 2.85662L13.12 1.82648L11.8182 3.13425L12.8436 4.16438L14.1455 2.85662ZM11.8109 12.8658L13.1127 14.1808L14.1382 13.1507L12.8291 11.8429L11.8109 12.8658ZM13.8182 7.26941V8.73059H16V7.26941H13.8182ZM8 3.61644C5.59273 3.61644 3.63636 5.58173 3.63636 8C3.63636 10.4183 5.59273 12.3836 8 12.3836C10.4073 12.3836 12.3636 10.4183 12.3636 8C12.3636 5.58173 10.4073 3.61644 8 3.61644ZM7.27273 16H8.72727V13.8447H7.27273V16ZM1.85455 13.1434L2.88 14.1735L4.18182 12.8584L3.15636 11.8283L1.85455 13.1434Z" fill="#F3CA2C" />
</symbol><symbol viewBox="0 0 27 27" fill="none" id="icon-target">
<path d="M12.1432 2.7407V0C9.41608 0.271357 6.93317 1.35678 4.92513 2.99849L6.85176 4.93869C8.35779 3.77186 10.1623 2.98492 12.1432 2.7407ZM22.0749 2.99849C20.0668 1.35678 17.5839 0.271357 14.8568 0V2.7407C16.8377 2.98492 18.6422 3.77186 20.1482 4.93869L22.0749 2.99849ZM24.2593 12.1432H27C26.7286 9.41608 25.6432 6.93317 24.0015 4.92513L22.0613 6.85176C23.2281 8.35779 24.0151 10.1623 24.2593 12.1432ZM4.93869 6.85176L2.99849 4.92513C1.35678 6.93317 0.271357 9.41608 0 12.1432H2.7407C2.98492 10.1623 3.77186 8.35779 4.93869 6.85176ZM2.7407 14.8568H0C0.271357 17.5839 1.35678 20.0668 2.99849 22.0749L4.93869 20.1347C3.77186 18.6422 2.98492 16.8377 2.7407 14.8568ZM17.5704 13.5C17.5704 11.2477 15.7523 9.42965 13.5 9.42965C11.2477 9.42965 9.42965 11.2477 9.42965 13.5C9.42965 15.7523 11.2477 17.5704 13.5 17.5704C15.7523 17.5704 17.5704 15.7523 17.5704 13.5ZM22.0613 20.1482L24.0015 22.0884C25.6432 20.0804 26.7286 17.5839 27 14.8704H24.2593C24.0151 16.8377 23.2281 18.6422 22.0613 20.1482ZM14.8568 24.2593V27C17.5839 26.7286 20.0668 25.6432 22.0749 24.0015L20.1347 22.0613C18.6422 23.2281 16.8377 24.0151 14.8568 24.2593ZM4.92513 24.0015C6.93317 25.6432 9.42965 26.7286 12.1432 27V24.2593C10.1623 24.0151 8.35779 23.2281 6.85176 22.0613L4.92513 24.0015Z" fill="currentColor" />
</symbol><symbol viewBox="0 0 20 20" fill="none" id="icon-tg">
<path d="M6.23313 10.8758C6.62458 11.0329 6.90346 10.9697 7.24461 10.7535C8.94064 9.67902 10.6519 8.62843 12.3631 7.57784C12.4821 7.50488 12.6425 7.50015 12.7837 7.4633C12.7189 7.58855 12.6592 7.71605 12.5884 7.83757C12.561 7.88438 12.5097 7.91675 12.4687 7.95535C11.1773 9.15758 9.89586 10.371 8.5878 11.5548C8.24242 11.8671 8.03274 12.1953 7.99141 12.6619C7.94559 13.1759 7.84574 13.6849 7.75635 14.2833C8.36369 13.732 8.90055 13.2444 9.44364 12.7516C9.52955 12.8146 9.60202 12.8666 9.67249 12.9207C10.4838 13.5422 11.2926 14.1665 12.1064 14.7843C12.4097 15.0144 12.4933 14.9783 12.5633 14.6204C13.0048 12.3773 13.4475 10.1347 13.8878 7.8916C14.0228 7.20258 14.1522 6.51281 14.2977 5.75507C10.8374 7.21204 7.44083 8.64263 3.9666 10.1056C4.77813 10.376 5.51996 10.5899 6.23313 10.8758Z" fill="currentColor" />
<path d="M9.99987 0C4.47701 0 0 4.47701 0 9.99988C0 15.523 4.47701 20 9.99987 20C15.5227 20 19.9998 15.523 19.9998 9.99988C20 4.47701 15.5227 0 9.99987 0ZM15.068 6.76594C14.5344 9.49587 14.0058 12.2266 13.4632 14.9545C13.2923 15.8131 12.368 16.1625 11.663 15.64C10.9416 15.1049 10.2364 14.5471 9.49961 13.9806C9.07928 14.3633 8.68383 14.7299 8.28093 15.089C7.71194 15.5959 7.14493 15.4622 6.90114 14.7378C6.60806 13.8673 6.34212 12.987 6.08763 12.104C6.01641 11.856 5.89141 11.74 5.65161 11.667C5.04078 11.4815 4.43891 11.2676 3.83331 11.0649C3.75886 11.0398 3.68316 11.0171 3.61219 10.9842C3.23419 10.8099 2.93163 10.5532 2.91918 10.1112C2.90648 9.65997 3.20728 9.4 3.59325 9.23714C7.00175 7.79934 10.4132 6.36702 13.8207 4.92623C14.7605 4.5288 15.2837 5.14337 15.2498 5.74025C15.2304 6.08414 15.1345 6.42454 15.068 6.76594Z" fill="currentColor" />
</symbol><symbol viewBox="0 0 21 20" fill="none" id="icon-tg-bordered">
<path fill-rule="evenodd" clip-rule="evenodd" d="M9.94999 13.8625C9.5332 14.242 9.14111 14.6055 8.7416 14.9616C8.17741 15.4643 7.61518 15.3317 7.37345 14.6134C7.08284 13.7502 6.81913 12.8774 6.56679 12.0018C6.49617 11.7559 6.37222 11.6408 6.13444 11.5685C5.52876 11.3845 4.93198 11.1724 4.33149 10.9714C4.25766 10.9465 4.1826 10.924 4.11223 10.8914C3.73742 10.7186 3.43741 10.464 3.42507 10.0258C3.41247 9.57835 3.71075 9.32058 4.09346 9.1591C7.47321 7.73342 10.8559 6.31318 14.2347 4.88454C15.1665 4.49047 15.6853 5.09985 15.6517 5.6917C15.6322 6.03293 15.5369 6.37046 15.4712 6.70873C14.9421 9.41564 14.4179 12.1233 13.8799 14.8282C13.7105 15.6796 12.7939 16.026 12.0949 15.508C11.3799 14.9774 10.6806 14.4245 9.94999 13.8625ZM14.7085 5.70651C11.2774 7.1512 7.9095 8.56971 4.46457 10.0203C5.26876 10.2887 6.00432 10.5008 6.71173 10.7845C7.09988 10.9403 7.37642 10.8776 7.71469 10.6633C9.39642 9.59786 11.0932 8.55614 12.79 7.51441C12.908 7.44206 13.067 7.43738 13.207 7.40083C13.1428 7.52503 13.0836 7.65145 13.0134 7.77194C12.9863 7.81836 12.9354 7.85046 12.8947 7.88873C11.6142 9.08082 10.3436 10.284 9.04654 11.4579C8.70407 11.7675 8.49617 12.0929 8.45518 12.5556C8.40975 13.0653 8.31074 13.57 8.2221 14.1633C8.82432 13.6166 9.35666 13.1332 9.89518 12.6445C9.98036 12.707 10.0522 12.7586 10.1221 12.8122C10.9265 13.4285 11.7285 14.0475 12.5354 14.6601C12.8362 14.8882 12.9191 14.8524 12.9885 14.4976C13.4263 12.2734 13.8653 10.0497 14.3018 7.82552C14.4357 7.14207 14.5643 6.45787 14.7085 5.70651Z" fill="currentColor" />
<path d="M10.4463 1.55555C15.0562 1.55555 18.8063 5.30592 18.8063 9.91554C18.8063 14.5254 15.0562 18.2758 10.4463 18.2758C5.83643 18.2758 2.08631 14.5254 2.08631 9.91554C2.08631 5.30592 5.83643 1.55555 10.4463 1.55555ZM10.4463 0C4.97001 0 0.530762 4.43925 0.530762 9.91554C0.530762 15.3921 4.97001 19.8313 10.4463 19.8313C15.9226 19.8313 20.3618 15.3921 20.3618 9.91554C20.3618 4.43925 15.9226 0 10.4463 0Z" fill="currentColor" />
</symbol><symbol viewBox="0 0 15 12" fill="none" id="icon-tile">
<path d="M0.143066 5.14286H4.42878V0H0.143066V5.14286ZM0.143066 11.1429H4.42878V6H0.143066V11.1429ZM5.28592 11.1429H9.57164V6H5.28592V11.1429ZM10.4288 11.1429H14.7145V6H10.4288V11.1429ZM5.28592 5.14286H9.57164V0H5.28592V5.14286ZM10.4288 0V5.14286H14.7145V0H10.4288Z" fill="currentColor" />
</symbol><symbol viewBox="0 0 20 20" fill="none" id="icon-time">
<path fill-rule="evenodd" clip-rule="evenodd" d="M0 10C0 4.48 4.47 0 9.99 0C15.52 0 20 4.48 20 10C20 15.52 15.52 20 9.99 20C4.47 20 0 15.52 0 10ZM2 10C2 14.42 5.58 18 10 18C14.42 18 18 14.42 18 10C18 5.58 14.42 2 10 2C5.58 2 2 5.58 2 10ZM9 5H10.5V10.25L15 12.92L14.25 14.15L9 11V5Z" fill="currentColor" />
</symbol><symbol viewBox="0 0 22 22" fill="none" id="icon-tires">
<path d="M20.7747 11.099C20.7747 10.1093 20.5345 9.01755 20.5345 9.01755C20.4417 8.5962 20.6168 8.17575 20.9233 8.08298C21.2301 7.99052 21.3578 7.58447 21.2074 7.18044L20.5427 5.72049C20.3372 5.34232 19.9493 5.17767 19.681 5.35428C19.4128 5.5311 18.9831 5.39393 18.7263 5.04942L17.9019 4.09132C17.5999 3.78706 17.5235 3.33701 17.7324 3.09095C17.9412 2.84488 17.8326 2.43295 17.491 2.17523L16.1565 1.3099C15.7824 1.10399 15.3683 1.17729 15.2361 1.47293C15.1039 1.76867 14.6694 1.8875 14.2703 1.73714L13.066 1.38604C12.6499 1.2951 12.3458 0.957792 12.39 0.636297C12.4339 0.315107 12.1229 0.0285908 11.6982 0L10.1171 0.00456217C9.69272 0.0356876 9.38312 0.324028 9.42899 0.644914C9.47496 0.965901 9.17276 1.30494 8.75723 1.39851L7.55491 1.75732C7.15697 1.91041 6.72186 1.79432 6.58794 1.49949C6.45413 1.20487 6.0395 1.1341 5.66674 1.34235L4.33721 2.21579C3.99733 2.47564 3.8913 2.88838 4.10146 3.13292C4.31163 3.37777 4.23807 3.82833 3.93777 4.13411L3.1194 5.09727C2.86487 5.4433 2.43615 5.58311 2.16662 5.40802C1.8973 5.23293 1.51055 5.3997 1.30719 5.77929L0.651113 7.24381C0.503209 7.64895 0.633624 8.05419 0.940723 8.14462C1.24802 8.23536 1.42501 8.6547 1.33417 9.07626C1.33417 9.07626 1.10702 10.1303 1.10702 11.0987C1.10702 11.1053 1.10702 11.1053 1.10702 11.1053C1.10722 11.1127 0.846286 11.1194 0.526894 11.1201C0.207602 11.1205 -0.0282451 11.4735 0.00273466 11.9041L0.229587 13.4938C0.320528 13.9155 0.645816 14.1856 0.952616 14.0936C1.25942 14.0019 1.63327 14.2573 1.78337 14.6615L2.30473 15.8175C2.5102 16.1957 2.45823 16.6493 2.18951 16.8254C1.92078 17.0016 1.91019 17.4281 2.16613 17.7732L3.20495 18.9847C3.50635 19.2897 3.92408 19.3381 4.13344 19.0926C4.34271 18.8466 4.79261 18.8575 5.13339 19.1163L6.1888 19.8022C6.56216 20.0092 6.75923 20.4204 6.62642 20.7157C6.49351 21.011 6.71146 21.3756 7.1103 21.5261L8.63331 21.9771C9.04934 22.0681 9.42639 21.8796 9.47096 21.5583C9.51583 21.2371 9.89838 21.0121 10.3216 21.0586C10.3216 21.0586 10.4692 21.0751 10.9407 21.0751C11.419 21.0751 11.58 21.057 11.58 21.057C12.0031 21.0101 12.3863 21.2341 12.4318 21.5554C12.4772 21.8764 12.8545 22.064 13.2704 21.9721L14.792 21.518C15.1907 21.3667 15.4079 21.0016 15.2744 20.7063C15.141 20.4115 15.3371 20 15.7102 19.792L16.7641 19.104C17.1045 18.8446 17.5543 18.8332 17.7642 19.078C17.974 19.3231 18.3916 19.2737 18.6924 18.9681L19.7287 17.7548C19.9838 17.4093 19.9724 16.983 19.7035 16.8072C19.4342 16.6313 19.3813 16.178 19.5859 15.7992L20.109 14.6314C20.2579 14.227 20.6376 13.9731 20.9524 14.0675C21.2675 14.1618 21.6041 13.8949 21.7005 13.4743L21.9307 11.9128C21.9682 11.4827 21.7234 11.1309 21.3864 11.1309C21.0494 11.1309 20.7741 11.1212 20.7745 11.1092C20.7747 11.11 20.7747 11.11 20.7747 11.099ZM10.941 17.6737C7.36753 17.6737 4.46033 14.7241 4.46033 11.0989C4.46033 7.47375 7.36753 4.52414 10.941 4.52414C14.5143 4.52414 17.4217 7.47365 17.4217 11.0989C17.4216 14.7242 14.5143 17.6737 10.941 17.6737Z" fill="currentColor" />
</symbol><symbol viewBox="0 0 19 18" fill="none" id="icon-tool">
<path d="M17.872 14.7124L10.3926 7.23295C11.1323 5.34256 10.7213 3.1234 9.15969 1.56176C7.51587 -0.0820609 5.05013 -0.410826 3.07754 0.493277L6.61177 4.0275L4.14603 6.49323L0.529618 2.95901C-0.456677 4.9316 -0.0457205 7.39734 1.5981 9.04116C3.15974 10.6028 5.3789 11.0137 7.26929 10.274L14.7487 17.7534C15.0775 18.0822 15.5706 18.0822 15.8994 17.7534L17.7898 15.863C18.2007 15.5343 18.2007 14.9589 17.872 14.7124Z" fill="currentColor" />
</symbol><symbol viewBox="0 0 14 18" fill="none" id="icon-trash">
<path d="M1 16C1 17.1 1.9 18 3 18H11C12.1 18 13 17.1 13 16V4H1V16ZM3 6H11V16H3V6ZM10.5 1L9.5 0H4.5L3.5 1H0V3H14V1H10.5Z" fill="currentColor" />
</symbol><symbol viewBox="0 0 16 16" fill="none" id="icon-user">
<path d="M8 8C10.21 8 12 6.21 12 4C12 1.79 10.21 0 8 0C5.79 0 4 1.79 4 4C4 6.21 5.79 8 8 8ZM8 10C5.33 10 0 11.34 0 14V16H16V14C16 11.34 10.67 10 8 10Z" fill="currentColor" />
</symbol><symbol viewBox="0 0 20 20" fill="none" id="icon-vk">
<path d="M9.99988 0C4.47677 0 0 4.47701 0 9.99987C0 15.523 4.47701 20 9.99988 20C15.5225 20 19.9998 15.523 19.9998 9.99987C19.9998 4.47701 15.5225 0 9.99988 0ZM14.6236 10.7932C14.7503 10.9479 14.8927 11.0891 15.0309 11.2342C15.4685 11.6927 15.9127 12.1444 16.34 12.6118C16.4692 12.753 16.5654 12.9308 16.6523 13.1043C16.7999 13.3989 16.7028 13.6255 16.3891 13.7293C16.268 13.7694 16.1353 13.7909 16.0073 13.7943C15.4169 13.8098 14.8258 13.8197 14.2348 13.824C13.8519 13.827 13.5271 13.6641 13.2525 13.4133C13.0411 13.2206 12.8536 13.001 12.6551 12.7936C12.4681 12.5981 12.2935 12.3874 12.0901 12.2104C11.7477 11.9123 11.4312 11.988 11.2863 12.4195C11.1946 12.6925 11.1633 12.989 11.1336 13.2779C11.1 13.6046 10.9802 13.7742 10.66 13.7886C9.87164 13.8247 9.08998 13.8033 8.33821 13.504C7.38773 13.1255 6.64069 12.4952 6.01741 11.6996C5.0856 10.5106 4.36495 9.19506 3.70706 7.84242C3.57683 7.57448 3.45157 7.30381 3.33379 7.02965C3.19708 6.71166 3.30341 6.52688 3.6488 6.51692C4.29374 6.49924 4.93893 6.49451 5.58413 6.4985C5.86228 6.49999 6.03658 6.66061 6.14191 6.92008C6.5 7.80234 6.95146 8.63553 7.51597 9.40398C7.61807 9.54268 7.73585 9.67441 7.86683 9.78522C8.13352 10.0118 8.3661 9.94907 8.45102 9.61241C8.51925 9.34148 8.56034 9.05736 8.56382 8.77846C8.56955 8.32949 8.54838 7.87977 8.51228 7.4323C8.4804 7.04234 8.25429 6.80055 7.86434 6.72087C7.82798 6.71364 7.79337 6.69796 7.73111 6.67704C7.80955 6.4721 7.95399 6.35407 8.13203 6.30452C8.35963 6.24102 8.59769 6.18275 8.83201 6.18026C9.39453 6.17379 9.96053 6.1688 10.5188 6.22508C11.0044 6.27339 11.1498 6.47285 11.1503 6.96565C11.1503 7.57274 11.1249 8.17934 11.1162 8.78643C11.1132 8.99187 11.1224 9.1978 11.1364 9.40349C11.1416 9.48292 11.167 9.56385 11.1969 9.63856C11.3092 9.92094 11.5002 9.98169 11.7243 9.78074C11.9083 9.61589 12.0764 9.42664 12.2233 9.22719C12.7525 8.50704 13.1633 7.72016 13.4933 6.89044C13.6193 6.5727 13.7037 6.51742 14.0391 6.51618C14.7386 6.51319 15.4378 6.51021 16.1373 6.50373C16.6998 6.4985 16.8582 6.70369 16.6127 7.21267C16.4065 7.63973 16.1513 8.04711 15.8816 8.43856C15.5464 8.92439 15.1714 9.38282 14.8198 9.85719C14.7237 9.98717 14.6417 10.1296 14.5683 10.2738C14.4766 10.4538 14.4961 10.6373 14.6236 10.7932Z" fill="currentColor" />
</symbol><symbol viewBox="0 0 19 19" fill="none" id="icon-wapp">
<path fill-rule="evenodd" clip-rule="evenodd" d="M10.3686 0.0740991C10.2256 0.0626991 10.0851 0.025175 9.94403 0C9.68684 0 9.42965 0 9.17246 0C8.49475 0.12255 7.80172 0.191663 7.1415 0.37525C1.39923 1.97101 -1.39156 8.28732 1.31278 13.5624C1.51968 13.9657 1.55536 14.3127 1.40234 14.7385C0.971055 15.9391 0.578324 17.1532 0.173618 18.3628C0.114229 18.5402 0.0744754 18.724 0 19C0.272039 18.9435 0.469125 18.9183 0.655194 18.8603C1.92678 18.4621 3.20005 18.0695 4.46326 17.6467C4.88712 17.5047 5.24537 17.5268 5.65966 17.7111C11.1984 20.1697 17.3772 17.1905 18.7491 11.4135C20.0593 5.89783 16.086 0.522974 10.3686 0.0740991ZM14.4068 12.4588C14.1978 13.3142 13.2641 13.9367 11.8957 13.9448C11.623 13.8598 11.0854 13.7114 10.5619 13.5242C8.04742 12.6267 6.44488 10.7768 5.30285 8.47899C4.78391 7.4347 4.81241 6.38139 5.54016 5.41334C5.68121 5.22595 5.86129 5.04949 6.05957 4.92575C6.63885 4.56499 7.29045 4.78016 7.54501 5.3979C7.71503 5.8102 7.84435 6.24126 8.03856 6.64145C8.2845 7.14875 8.15638 7.54727 7.8034 7.94556C7.28518 8.53005 7.30027 8.54881 7.73635 9.21167C8.39154 10.208 9.2522 10.9708 10.3195 11.5157C10.7029 11.7114 10.99 11.6855 11.2992 11.3608C12.1749 10.4417 12.1855 10.4512 13.3031 11.0404C13.516 11.1528 13.727 11.2677 13.9372 11.3834C14.5004 11.694 14.5603 11.8322 14.4068 12.4588Z" fill="currentColor" />
</symbol><symbol viewBox="0 0 20 20" fill="none" id="icon-wapp-bordered">
<path fill-rule="evenodd" clip-rule="evenodd" d="M10.6908 0.324106C10.5434 0.312254 10.3985 0.273243 10.2531 0.24707C9.98789 0.24707 9.7227 0.24707 9.45751 0.24707C8.75875 0.374477 8.04419 0.446326 7.36345 0.63719C1.44272 2.2962 -1.43481 8.86285 1.35358 14.347C1.56692 14.7663 1.6037 15.127 1.44593 15.5698C1.00124 16.8179 0.596297 18.0801 0.179013 19.3377C0.117779 19.5221 0.07679 19.7132 0 20.0001C0.280493 19.9413 0.483708 19.9152 0.67556 19.8549C1.98667 19.4409 3.2995 19.0327 4.60197 18.5932C5.039 18.4456 5.40838 18.4685 5.83554 18.6601C11.5464 21.2162 17.9172 18.1189 19.3318 12.113C20.6827 6.37866 16.5859 0.790772 10.6908 0.324106ZM14.4733 16.5231C11.7617 18.3826 8.87455 18.4539 5.97085 16.9031C5.61629 16.7137 5.31752 16.6779 4.94468 16.8095C4.18394 17.0777 3.40913 17.3053 2.64049 17.5495C2.5958 17.509 2.55087 17.4683 2.50617 17.4278C2.69531 16.8535 2.84 16.2591 3.08519 15.7098C3.39728 15.0107 3.28197 14.4599 2.91012 13.7809C0.238027 8.90063 3.14123 3.08583 8.40788 2.04657C12.8624 1.16731 17.2491 4.22212 17.8637 8.70804C18.3071 11.9473 17.194 14.6574 14.4733 16.5231Z" fill="currentColor" />
<path fill-rule="evenodd" clip-rule="evenodd" d="M14.3701 12.0823C14.153 11.9621 13.9355 11.8423 13.7162 11.7258C12.5639 11.1132 12.553 11.1033 11.6501 12.0589C11.3313 12.3964 11.0353 12.4236 10.6399 12.2198C9.53946 11.6534 8.65206 10.8603 7.9765 9.82454C7.52712 9.13541 7.51132 9.1159 8.04564 8.50825C8.40983 8.09417 8.54193 7.67986 8.2881 7.15245C8.08786 6.73615 7.95452 6.28825 7.77922 5.85961C7.51675 5.21715 6.8449 4.99369 6.24761 5.36875C6.04317 5.49739 5.85749 5.68085 5.71206 5.87566C4.96169 6.88208 4.93231 7.97714 5.46737 9.06282C6.64489 11.4517 8.29724 13.3749 10.8898 14.308C11.4298 14.5023 11.9841 14.6566 12.2651 14.7453C13.676 14.7369 14.6387 14.0897 14.8543 13.2003C15.0125 12.5485 14.9508 12.405 14.3701 12.0823Z" fill="currentColor" />
</symbol><symbol viewBox="0 0 14 16" fill="none" id="icon-warranty">
<path d="M6.54545 0L0 2.90909V7.27273C0 11.3091 2.79273 15.0836 6.54545 16C10.2982 15.0836 13.0909 11.3091 13.0909 7.27273V2.90909L6.54545 0ZM5.09091 11.6364L2.18182 8.72727L3.20727 7.70182L5.09091 9.57818L9.88364 4.78545L10.9091 5.81818L5.09091 11.6364Z" fill="currentColor" />
</symbol><symbol viewBox="0 0 22 22" fill="none" id="icon-wheels">
<path d="M11 0C4.92466 0 0 4.92466 0 11C0 17.0751 4.92456 22 11 22C17.0752 22 22 17.0752 22 11C22 4.92477 17.0753 0 11 0ZM13.48 2.54554C13.48 2.54554 14.9504 2.8358 16.4912 4.02525C17.7722 5.01416 18.4975 6.28857 18.4975 6.28857C18.952 7.08168 18.6245 8.30759 17.39 8.52547L14.6364 9.01205C13.4021 9.23014 12.2493 8.39286 12.0751 7.15089L11.6626 4.20964C11.4885 2.96767 12.1917 2.28994 13.48 2.54554ZM3.8134 6.28804C4.24324 5.60862 4.5578 4.91568 5.9869 3.91695C7.42562 2.91145 7.92477 2.72084 8.62384 2.54554C9.83992 2.24144 10.6155 2.96767 10.4413 4.20964L10.0287 7.15089C9.85482 8.39275 8.70203 9.23014 7.46778 9.01205L4.71366 8.52547C3.47919 8.30737 3.14339 7.34806 3.8134 6.28804ZM4.02155 16.4405C4.02155 16.4405 1.8358 13.9283 1.8358 10.9929C1.8358 10.2156 1.8358 10.2156 1.8358 10.2156C2.15279 9.40459 3.12521 9.19041 4.25243 9.73965L6.78677 10.9584C7.91389 11.5075 8.38145 12.8623 7.79237 13.9693L6.5839 16.1766C5.99535 17.2832 4.82597 17.4019 4.02155 16.4405ZM13.8792 19.5646C13.8792 19.5646 12.8556 20.0413 11.0517 20.0413C9.2481 20.0413 8.22422 19.5646 8.22422 19.5646C7.08792 19.0351 6.87035 17.8641 7.74091 16.9621L9.46894 15.1718C10.3395 14.2698 11.7642 14.2698 12.6347 15.1718L14.3627 16.9621C15.2334 17.8641 15.0157 19.0351 13.8792 19.5646ZM17.9002 16.4405C17.0959 17.4019 16.0133 17.2832 15.4243 16.1766L14.2705 13.9693C13.6817 12.8622 14.132 11.5075 15.2589 10.9584L17.6655 9.73965C18.7923 9.19051 19.5873 9.40459 19.9043 10.2156C19.9043 10.2156 19.9043 10.2156 19.9043 10.9929C19.9043 13.9279 17.9002 16.4405 17.9002 16.4405Z" fill="currentColor" />
</symbol><symbol viewBox="0 0 17 16" fill="none" id="icon-winter">
<path d="M16.0687 7.2H12.7192L15.3217 4.608L14.1891 3.472L10.4461 7.2H8.83963V5.6L12.5827 1.872L11.4421 0.744L8.83963 3.336V0H7.23318V3.336L4.63073 0.744L3.49015 1.872L7.23318 5.6V7.2H5.62673L1.8837 3.472L0.75115 4.608L3.3536 7.2H0.00415039V8.8H3.3536L0.75115 11.392L1.8837 12.528L5.62673 8.8H7.23318V10.4L3.49015 14.128L4.63073 15.256L7.23318 12.664V16H8.83963V12.664L11.4421 15.256L12.5827 14.128L8.83963 10.4V8.8H10.4461L14.1891 12.528L15.3217 11.392L12.7192 8.8H16.0687V7.2Z" fill="#008BD1" />
</symbol><symbol viewBox="0 0 21 20" fill="none" id="icon-youtube">
<path d="M9.48438 11.9196C10.6119 11.2809 11.668 10.682 12.804 10.0381C11.6685 9.39387 10.6226 8.79998 9.48438 8.15479C9.48438 9.45538 9.48438 10.6367 9.48438 11.9196Z" fill="currentColor" />
<path d="M10.7733 0C5.25045 0 0.773438 4.47701 0.773438 9.99988C0.773438 15.523 5.25045 20 10.7733 20C16.2962 20 20.7732 15.523 20.7732 9.99988C20.7734 4.47726 16.2962 0 10.7733 0ZM16.7511 12.733C16.5778 13.6868 16.1209 14.1723 15.1609 14.184C12.2363 14.2199 9.31011 14.2206 6.38545 14.1843C5.39487 14.1713 4.94167 13.6785 4.7818 12.6885C4.49544 10.9165 4.49943 9.14302 4.78331 7.37104C4.93222 6.43874 5.3767 5.97557 6.30477 5.90411C7.79786 5.78906 13.5483 5.73329 14.9152 5.86477C16.2895 5.99624 16.663 6.37822 16.8266 7.73037C17.0283 9.39676 17.0527 11.0701 16.7511 12.733Z" fill="currentColor" />
</symbol></defs></svg>